<svg width="420" height="620" viewBox="0 0 420 620" fill="none" xmlns="http://www.w3.org/2000/svg" role="presentation" aria-hidden="true">
  <path d="M180 12 C 120 90, 260 150, 190 230 C 120 310, 260 370, 195 450 C 135 520, 250 560, 205 610"
    stroke="#0a4c47" stroke-width="4" fill="none" stroke-linecap="round"/>
  <path d="M300 60 C 250 130, 360 190, 300 260 C 245 325, 355 380, 300 450"
    stroke="#0a4c47" stroke-width="3" fill="none" stroke-linecap="round" opacity="0.6"/>
  <g stroke="#a9743a" stroke-width="2.5" stroke-linecap="round">
    <line x1="128" y1="92" x2="185" y2="102"/>
    <line x1="248" y1="152" x2="192" y2="148"/>
    <line x1="130" y1="232" x2="188" y2="238"/>
    <line x1="250" y1="312" x2="196" y2="318"/>
    <line x1="145" y1="452" x2="200" y2="458"/>
  </g>
  <g stroke="#a9743a" stroke-width="2" stroke-linecap="round" opacity="0.55">
    <line x1="262" y1="132" x2="305" y2="138"/>
    <line x1="352" y1="192" x2="305" y2="198"/>
    <line x1="255" y1="328" x2="303" y2="334"/>
  </g>
  <g stroke="#0a4c47" stroke-width="1.6" fill="none" opacity="0.5">
    <path d="M60 200 q 18 -22 36 0 q 18 22 36 0" />
    <path d="M330 320 q 16 -20 32 0 q 16 20 32 0" />
    <path d="M90 470 q 16 -20 32 0 q 16 20 32 0" />
  </g>
</svg>
